<?xml version="1.0" standalone="no"?>
<!DOCTYPE svg PUBLIC "-//W3C//DTD SVG 20010904//EN"
 "http://www.w3.org/TR/2001/REC-SVG-20010904/DTD/svg10.dtd">
<svg version="1.0" xmlns="http://www.w3.org/2000/svg"
 width="1024.000000pt" height="1024.000000pt" viewBox="0 0 1024.000000 1024.000000"
 preserveAspectRatio="xMidYMid meet">

<g transform="translate(0.000000,1024.000000) scale(0.100000,-0.100000)"
fill="#D6AEFF" stroke="none">
<path d="M1525 10231 c-95 -25 -164 -81 -207 -169 l-33 -67 0 -720 0 -720 36
-65 c64 -116 176 -178 304 -168 115 10 213 77 266 183 l24 50 0 725 0 725 -24
50 c-32 64 -99 130 -159 157 -51 22 -158 32 -207 19z"/>
<path d="M6635 10227 c-66 -22 -98 -43 -146 -94 -88 -94 -84 -52 -84 -858 l0
-710 26 -55 c32 -66 86 -123 154 -158 43 -23 63 -27 135 -27 73 0 93 4 142 28
62 30 115 83 150 149 l23 43 0 735 0 735 -23 43 c-58 109 -153 172 -270 178
-39 2 -84 -2 -107 -9z"/>
<path d="M573 8949 c-129 -22 -264 -93 -360 -191 -75 -76 -104 -116 -148 -211
-70 -150 -66 86 -63 -3147 l3 -2915 28 -80 c82 -234 257 -400 487 -464 74 -21
85 -21 2017 -21 l1943 0 0 320 0 320 -1904 0 -1905 0 -15 22 c-14 20 -16 249
-16 2240 l0 2218 3520 0 3520 0 0 -640 0 -640 320 0 320 0 0 1298 c0 1444 4
1356 -70 1507 -87 179 -226 300 -415 362 -73 24 -98 27 -277 31 l-198 4 0
-203 c0 -233 -10 -291 -67 -409 -49 -100 -178 -230 -275 -278 -258 -127 -547
-81 -747 118 -74 75 -121 151 -157 255 -26 75 -28 93 -32 298 l-4 217 -1919 0
-1919 0 0 -198 c0 -165 -3 -212 -20 -276 -30 -117 -83 -209 -170 -296 -253
-253 -647 -253 -900 0 -75 75 -120 147 -158 252 -25 69 -26 85 -30 296 l-4
222 -166 -1 c-92 -1 -190 -5 -219 -10z"/>
<path d="M1280 5760 l0 -640 640 0 640 0 0 640 0 640 -640 0 -640 0 0 -640z"/>
<path d="M3200 5760 l0 -640 640 0 640 0 0 640 0 640 -640 0 -640 0 0 -640z"/>
<path d="M5120 5760 l0 -640 640 0 640 0 0 640 0 640 -640 0 -640 0 0 -640z"/>
<path d="M7475 5110 c-349 -31 -689 -130 -985 -287 -992 -527 -1527 -1629
-1325 -2729 204 -1102 1100 -1944 2215 -2080 184 -22 542 -15 715 15 562 96
1043 350 1435 758 362 376 591 832 681 1357 30 174 37 532 15 716 -71 579
-326 1101 -739 1512 -400 398 -900 645 -1467 723 -141 19 -411 27 -545 15z
m375 -641 c614 -56 1155 -394 1477 -921 108 -178 193 -396 239 -613 35 -165
44 -466 20 -635 -126 -862 -780 -1519 -1637 -1644 -135 -20 -391 -20 -528 -1
-728 104 -1333 609 -1561 1304 -196 598 -89 1245 289 1751 70 94 224 254 317
331 273 223 633 380 964 418 52 6 109 13 125 15 65 7 186 5 295 -5z"/>
<path d="M8690 3248 c-51 -19 -103 -68 -645 -609 l-590 -589 -355 355 c-391
391 -409 406 -526 413 -133 9 -244 -54 -304 -172 -31 -62 -35 -77 -34 -145 1
-137 -16 -117 552 -682 456 -455 512 -507 557 -522 69 -23 161 -22 232 4 55
20 94 58 775 737 488 487 725 730 742 762 47 87 49 215 5 302 -31 60 -102 124
-165 147 -72 28 -170 27 -244 -1z"/>
<path d="M1280 3840 l0 -640 640 0 640 0 0 640 0 640 -640 0 -640 0 0 -640z"/>
<path d="M3200 3840 l0 -640 640 0 640 0 0 640 0 640 -640 0 -640 0 0 -640z"/>
</g>
</svg>
