<?xml version="1.0" standalone="no"?>
<!DOCTYPE svg PUBLIC "-//W3C//DTD SVG 20010904//EN"
 "http://www.w3.org/TR/2001/REC-SVG-20010904/DTD/svg10.dtd">
<svg version="1.0" xmlns="http://www.w3.org/2000/svg"
 width="980.000000pt" height="942.000000pt" viewBox="0 0 980.000000 942.000000"
 preserveAspectRatio="xMidYMid meet">

<g transform="translate(0.000000,942.000000) scale(0.100000,-0.100000)"
fill="#D6AEFF" stroke="none">
<path d="M4818 9397 c-134 -51 -213 -151 -225 -287 -8 -79 8 -88 115 -65 112
25 436 132 462 153 21 17 22 20 7 48 -21 40 -95 107 -149 135 -53 27 -157 35
-210 16z"/>
<path d="M6860 9259 c-504 -49 -934 -122 -1382 -234 -1219 -306 -2336 -831
-3078 -1449 -194 -161 -453 -431 -602 -627 -248 -326 -420 -681 -443 -914 -8
-84 10 -334 30 -422 29 -124 96 -217 201 -279 l49 -29 175 1 c206 0 225 5 441
115 214 109 607 375 697 473 35 37 42 53 42 85 0 130 87 406 182 573 76 135
250 371 299 406 18 12 19 11 19 -17 0 -17 -15 -97 -34 -178 -78 -334 -126
-672 -126 -890 0 -104 -11 -93 110 -117 122 -25 378 -38 645 -34 l250 3 110
39 c211 73 370 165 506 294 136 128 228 256 343 478 l58 112 -16 423 c-18 465
-20 659 -8 659 4 0 21 -24 38 -52 223 -379 480 -807 493 -820 29 -31 323 -173
436 -211 140 -47 233 -66 365 -76 322 -25 636 67 951 279 223 150 439 343 439
393 0 69 -243 357 -577 685 -127 123 -184 185 -177 192 21 21 313 -80 497
-171 117 -57 236 -149 389 -297 l127 -124 423 5 c447 5 549 13 693 57 151 47
282 146 336 255 26 53 32 80 36 152 9 153 -33 270 -158 453 -280 409 -974 711
-1839 800 -139 15 -819 21 -940 9z"/>
<path d="M5834 6109 c-49 -14 -126 -71 -159 -118 -43 -61 -45 -133 -7 -281 46
-176 1670 -5465 1708 -5560 42 -105 214 -170 331 -125 57 22 118 76 146 129
43 83 41 93 -190 866 -201 673 -1287 4218 -1467 4789 -51 160 -80 218 -131
257 -62 47 -157 65 -231 43z"/>
<path d="M164 4926 c-107 -35 -164 -95 -164 -172 0 -105 72 -304 239 -669 209
-453 455 -891 753 -1335 239 -358 387 -541 666 -824 296 -300 598 -535 884
-688 163 -88 203 -112 203 -128 0 -15 -39 -28 -1042 -329 -636 -192 -1003
-308 -1090 -346 -40 -18 -56 -32 -72 -64 -59 -114 12 -273 132 -295 44 -8 249
50 1787 509 1055 315 991 301 1283 276 239 -21 665 6 897 56 100 22 111 21
172 -18 59 -36 338 -245 748 -559 338 -259 378 -282 461 -260 45 12 113 69
136 113 20 39 20 115 0 154 -21 39 -94 105 -285 257 -652 517 -617 488 -596
503 10 8 66 39 124 70 425 225 724 421 788 519 104 156 28 357 -154 410 -73
21 -136 7 -231 -52 -121 -75 -266 -127 -773 -277 -467 -139 -480 -140 -561
-82 -351 254 -2852 2198 -3633 2824 -317 255 -284 227 -319 274 -44 58 -78 87
-134 113 -63 30 -162 39 -219 20z m1739 -1766 c960 -738 1568 -1211 1891
-1470 120 -96 226 -181 235 -188 14 -11 14 -14 1 -22 -28 -19 -115 -41 -220
-57 -88 -13 -118 -13 -194 -3 -210 29 -423 98 -661 215 -581 286 -1107 788
-1578 1505 -202 309 -417 681 -417 724 0 23 -47 58 943 -704z"/>
</g>
</svg>
